<svg xmlns="http://www.w3.org/2000/svg" viewBox="0 0 497 200" width="497" height="200"><g transform="translate(20,22.0) scale(0.78)"><rect x="0" y="0" width="200" height="200" rx="52" fill="#013A40"/>
<path d="M74 60 H56 A6 6 0 0 0 50 66 V134 A6 6 0 0 0 56 140 H74"
      fill="none" stroke="#FFFFFF" stroke-width="11" stroke-linecap="round"/>
<path d="M126 60 H144 A6 6 0 0 1 150 66 V134 A6 6 0 0 1 144 140 H126"
      fill="none" stroke="#FFFFFF" stroke-width="11" stroke-linecap="round"/>
<circle cx="100" cy="100" r="16" fill="#12C2A0"/></g><path d="M220 71V605Q185 604 139 600L119 599Q103 577 92.5 544.5Q82 512 81 483Q63 480 45 480Q29 480 12 483V671Q166 667 293 667Q369 667 452.5 668.5Q536 670 575 671V483Q559 480 542 480Q524 480 506 483Q502 516 492.5 546.5Q483 577 470 598Q420 605 367 606V71Q388 51 442 41L435 0H144L148 41Q191 47 220 71Z" fill="#04262B" transform="translate(210.00,108.00) scale(0.06200,-0.06200)"/><path d="M89 66V354Q89 390 75.5 403.5Q62 417 27 419L30 458Q45 461 84 467Q191 485 213 492L230 483V66Q255 47 294 39L290 0H33L37 41Q56 45 66.5 50.0Q77 55 89 66ZM70 622Q70 692 150 692Q189 692 209.0 674.0Q229 656 229 622Q229 588 209.0 570.0Q189 552 150 552Q110 552 90.0 570.0Q70 588 70 622Z" fill="#04262B" transform="translate(246.89,108.00) scale(0.06200,-0.06200)"/><path d="M25 238Q25 357 87.0 424.5Q149 492 266 492Q378 492 425.0 440.0Q472 388 478 285L450 243H168V227Q168 143 192.0 102.5Q216 62 282 62Q320 62 356.5 75.5Q393 89 420 117L460 78Q419 37 374.5 15.0Q330 -7 258 -7Q142 -7 83.5 58.5Q25 124 25 238ZM262 443Q171 443 168 283L336 291Q336 371 320.0 407.0Q304 443 262 443Z" fill="#04262B" transform="translate(266.49,108.00) scale(0.06200,-0.06200)"/><path d="M90 66V354Q90 390 76.0 403.5Q62 417 27 419L30 458L63 464Q169 482 201 492L219 483L227 417Q250 451 283.0 471.0Q316 491 356 491Q395 491 423.5 464.5Q452 438 452 399Q452 363 431.5 342.5Q411 322 384 322Q353 322 335 347Q349 364 349 380Q349 396 335.5 406.0Q322 416 305 416Q284 416 263.5 398.5Q243 381 231 353V66Q254 48 291 39L287 0H34L37 41Q56 45 66.5 50.0Q77 55 90 66Z" fill="#04262B" transform="translate(298.80,108.00) scale(0.06200,-0.06200)"/><path d="M350 609Q317 610 253 610Q189 610 157 609Q148 598 138.0 563.0Q128 528 121 485Q105 482 86 482Q62 482 36 490L24 637L61 669Q107 667 298 667Q445 667 521 669L531 631L196 59Q224 58 283 58Q365 58 404 59Q436 105 456 190Q472 194 496 194Q518 194 531 191L522 -2Q472 -2 434 -1L257 0Q65 0 28 -2L24 45Z" fill="#04262B" transform="translate(341.58,108.00) scale(0.06200,-0.06200)"/><path d="M25 238Q25 357 87.0 424.5Q149 492 266 492Q378 492 425.0 440.0Q472 388 478 285L450 243H168V227Q168 143 192.0 102.5Q216 62 282 62Q320 62 356.5 75.5Q393 89 420 117L460 78Q419 37 374.5 15.0Q330 -7 258 -7Q142 -7 83.5 58.5Q25 124 25 238ZM262 443Q171 443 168 283L336 291Q336 371 320.0 407.0Q304 443 262 443Z" fill="#04262B" transform="translate(376.43,108.00) scale(0.06200,-0.06200)"/><path d="M90 66V354Q90 390 76.0 403.5Q62 417 27 419L30 458L63 464Q169 482 201 492L219 483L227 417Q250 451 283.0 471.0Q316 491 356 491Q395 491 423.5 464.5Q452 438 452 399Q452 363 431.5 342.5Q411 322 384 322Q353 322 335 347Q349 364 349 380Q349 396 335.5 406.0Q322 416 305 416Q284 416 263.5 398.5Q243 381 231 353V66Q254 48 291 39L287 0H34L37 41Q56 45 66.5 50.0Q77 55 90 66Z" fill="#04262B" transform="translate(408.74,108.00) scale(0.06200,-0.06200)"/><path d="M25 241Q25 364 85.5 428.0Q146 492 265 492Q384 492 444.5 428.0Q505 364 505 242Q505 120 444.5 56.5Q384 -7 265 -7Q146 -7 85.5 56.0Q25 119 25 241ZM358 242Q358 344 336.0 390.0Q314 436 265 436Q216 436 194.0 390.0Q172 344 172 242Q172 140 194.0 94.5Q216 49 265 49Q314 49 336.0 94.5Q358 140 358 242Z" fill="#04262B" transform="translate(437.39,108.00) scale(0.06200,-0.06200)"/></svg>